<?xml version="1.0" encoding="utf-8"?>
<!-- Generator: Adobe Illustrator 26.5.0, SVG Export Plug-In . SVG Version: 6.00 Build 0)  -->
<svg version="1.1" xmlns="http://www.w3.org/2000/svg" xmlns:xlink="http://www.w3.org/1999/xlink" x="0px" y="0px"
	 viewBox="0 0 130 40" style="enable-background:new 0 0 130 40;" xml:space="preserve">
<style type="text/css">
	.st0{fill:#75A928;}
	.st1{fill:#BC1142;}
</style>
<g id="Layer_1">
	<g transform="matrix(1.188851 0 0 1.188851 -4.923022 -8.243344)">
		<path d="M13.5,10.6c-0.2,0-0.3,0.1-0.4,0.2c-0.4-0.2-0.8-0.2-1.1,0.1c-0.3-0.1-0.6,0-0.8,0.2c-0.4-0.1-0.9,0-1.2,0.4
			c-0.9-0.1-1.1,0.5-0.8,1.1c-0.3,0.3-0.3,0.8,0,1l0,0c-0.1,0.4,0,0.7,0.3,1c-0.1,0.3,0.1,0.7,0.4,0.9c0,0.4,0.3,0.8,0.7,1
			c0.1,0.4,0.4,0.8,0.9,0.8c0.1,0.4,0.5,0.6,0.9,0.7c-1.6,0.7-2.5,2.4-2.3,4.1l-0.2,0.3c-1.8,1.2-2.3,3.7-1,5.5
			C8.8,27.8,9,28,9.1,28.1c0.1,0.6,0.3,1.2,0.5,1.7c0.2,1.6,1.2,2.9,2.7,3.5c0.8,0.6,1.7,1.1,2.6,1.5c0.8,0.9,2,1.4,3.2,1.4h0.1
			c1.2,0,2.4-0.5,3.2-1.4c0.9-0.3,1.8-0.8,2.6-1.5c1.5-0.6,2.5-1.9,2.7-3.5c0.2-0.6,0.4-1.1,0.5-1.7c1.5-1.6,1.3-4.1-0.3-5.5
			c-0.1-0.1-0.3-0.2-0.4-0.3L26.2,22c0.1-1.7-0.8-3.3-2.3-4c0.4,0,0.8-0.3,0.9-0.7c0.4,0,0.8-0.4,0.9-0.8c0.4-0.2,0.6-0.6,0.7-1
			c0.3-0.2,0.5-0.5,0.4-0.9c0.3-0.2,0.4-0.6,0.3-1c0.3-0.3,0.3-0.7,0.1-1l0,0c0.3-0.6,0-1.2-0.8-1.1c-0.3-0.3-0.8-0.5-1.2-0.4
			c-0.2-0.2-0.5-0.3-0.8-0.2c-0.3-0.3-0.7-0.3-1.1-0.1c-0.3-0.2-0.8-0.2-1.1,0c-0.3-0.1-0.7-0.1-1,0.2c-0.4-0.1-0.9,0.1-1.1,0.5
			h-0.3c-0.8,0.5-1.3,1.3-1.5,2.2c-0.2-0.9-0.8-1.7-1.5-2.3h-0.3c-0.2-0.4-0.7-0.5-1.1-0.4c-0.3-0.2-0.6-0.3-1-0.2
			C13.9,10.7,13.7,10.7,13.5,10.6L13.5,10.6z"/>
		<path class="st0" d="M11.6,13c1.7,0.8,3.3,1.8,4.6,3.1c-0.3,1.6-2.4,1.7-3.2,1.7c0.1,0,0.3-0.2,0.3-0.3c-0.5-0.1-0.9-0.2-1.3-0.3
			c0.1,0,0.3-0.1,0.4-0.2c-0.4-0.1-0.8-0.3-1.2-0.5c0.2,0,0.3,0,0.5-0.1c-0.4-0.2-0.8-0.4-1.1-0.7c0.2,0,0.3,0,0.5-0.1
			c-0.3-0.2-0.6-0.5-0.9-0.7c0.2,0,0.3,0,0.5,0c-0.3-0.2-0.6-0.5-0.8-0.9c0.2,0.1,0.4,0.1,0.5,0c-0.3-0.3-0.5-0.6-0.7-0.9
			c0.2,0,0.3,0,0.5,0c-0.1-0.3-0.2-0.6-0.5-0.9c0.4,0,0.8,0,1.2,0l-0.4-0.4c0.4-0.1,0.9,0,1.3,0.1c0.2-0.1,0-0.3-0.2-0.4
			c0.4,0,0.7,0.1,1.1,0.3c0.2-0.2-0.1-0.3-0.3-0.5c0.4,0.1,0.8,0.2,1.1,0.4c0.2-0.2,0-0.3-0.1-0.5c0.4,0.1,0.7,0.3,1,0.6
			c0.1-0.1,0.2-0.3,0.1-0.5l0,0c0.3,0.2,0.6,0.4,0.8,0.7c0.1-0.1,0.2-0.3,0.1-0.5c0.3,0.3,0.6,0.6,0.9,0.9c0.1-0.1,0.1-0.2,0.1-0.4
			c0.8,0.8,2,2.8,0.3,3.6C15.2,14.5,13.5,13.6,11.6,13L11.6,13z M24.5,13c-1.7,0.8-3.3,1.8-4.6,3.1c0.4,1.6,2.5,1.7,3.2,1.6
			c-0.1-0.1-0.2-0.2-0.3-0.3c0.5-0.1,0.9-0.2,1.3-0.3c-0.1,0-0.3-0.1-0.3-0.2c0.4-0.1,0.8-0.3,1.2-0.5c-0.2,0-0.3,0-0.5-0.1
			c0.4-0.2,0.8-0.4,1.1-0.7c-0.2,0-0.3,0-0.5-0.1c0.3-0.2,0.6-0.5,0.9-0.7c-0.2,0-0.3,0-0.5,0c0.3-0.2,0.6-0.5,0.8-0.9
			c-0.2,0.1-0.4,0.1-0.5,0c0.3-0.3,0.5-0.6,0.7-0.9c-0.2,0-0.3,0-0.5,0c0.1-0.3,0.2-0.6,0.5-0.9c-0.4,0-0.8,0-1.2,0l0.3-0.3
			c-0.4-0.1-0.9,0-1.3,0.1c-0.2-0.1,0-0.3,0.2-0.4c-0.4,0-0.7,0.1-1.1,0.3c-0.2-0.2,0.1-0.3,0.2-0.5c-0.4,0.1-0.8,0.2-1.1,0.4
			c-0.2-0.2,0-0.3,0.1-0.5c-0.4,0.1-0.7,0.3-1,0.6c-0.2-0.1-0.2-0.3-0.1-0.5l0,0c-0.3,0.2-0.6,0.4-0.8,0.7c-0.1-0.1-0.2-0.3-0.1-0.5
			c-0.3,0.3-0.6,0.6-0.9,0.9c-0.1-0.1-0.1-0.2-0.1-0.4c-0.8,0.8-2,2.8-0.3,3.6C21,14.5,22.7,13.6,24.5,13L24.5,13z"/>
		<path class="st1" d="M21,29.2c-0.1,1.5-1.3,2.7-2.9,2.7c-1.5,0.1-2.9-1.1-2.9-2.7c0.1-1.5,1.3-2.7,2.9-2.7
			C19.6,26.4,20.9,27.6,21,29.2z M16.4,21.5c1.2,1,1.4,2.8,0.5,4c-0.8,1.4-2.5,1.9-3.9,1.1c-1.2-1-1.4-2.8-0.5-4
			C13.3,21.3,15,20.8,16.4,21.5z M19.7,21.4c-1.2,1-1.4,2.8-0.5,4c0.8,1.4,2.5,1.9,3.9,1.1c1.2-1,1.4-2.8,0.5-4
			C22.8,21.1,21.1,20.6,19.7,21.4z M10.4,22.8c1.3-0.3,0.4,5.4-0.6,4.9c-1.2-1.2-1.3-3.2-0.1-4.4C9.9,23.1,10.1,23,10.4,22.8z
			 M25.4,22.7c-1.3-0.3-0.4,5.4,0.6,4.9c1.2-1.2,1.3-3.2,0.1-4.4C25.9,23.1,25.7,22.9,25.4,22.7z M21,18.5c2.2-0.4,4.1,1,4,3.4
			C25,22.8,20.2,18.6,21,18.5z M14.8,18.4c-2.2-0.4-4.1,1-4,3.4C10.8,22.7,15.6,18.5,14.8,18.4z M18,17.8c-1.3,0-2.6,1-2.6,1.6
			s1.1,1.5,2.6,1.5s2.6-0.6,2.6-1.3S19.2,17.8,18,17.8L18,17.8z M18.1,32.7c1.2-0.1,2.7,0.4,2.7,0.9s-1.4,1.8-2.8,1.7
			s-2.9-1.2-2.8-1.6C15.2,33.1,16.9,32.6,18.1,32.7L18.1,32.7z M13.8,29.3c0.9,1,1.2,2.8,0.5,3.3s-2.3,0.2-3.4-1.4
			c-0.8-1.4-0.7-2.8-0.1-3.2C11.6,27.6,12.9,28.2,13.8,29.3L13.8,29.3z M22.3,29c-0.9,1.1-1.4,3-0.7,3.6c0.6,0.5,2.3,0.4,3.6-1.3
			c0.7-1.1,0.8-2.5,0.1-3.6C24.4,27.1,23.3,27.9,22.3,29L22.3,29z"/>
	</g>
	<path d="M36.7,15.6c0.2,0,0.5,0.1,0.7,0.2c1.2,0.4,2.1,1.4,2.3,2.7c0.2,1.1-0.2,2.2-1,3l-0.1-0.1c0.3,0.3,0.6,0.6,0.7,0.9
		c0.2,0.4,0.3,0.8,0.3,1.3c0,0.3,0,0.6,0.1,0.9c0,0.1,0,0.1,0.1,0.1c0.3,0.2,0.5,0.5,0.5,0.9c-0.1,0.4-0.4,0.7-0.9,0.7
		s-1-0.3-1.2-0.8C38,25,38,24.6,37.9,24.2c0-0.3,0-0.5,0-0.8c-0.1-0.5-0.4-0.9-0.9-1c-0.3-0.2-0.6-0.2-1-0.2h-1.5v3.3
		c0,0.5-0.3,0.8-0.8,0.9c-0.4,0-0.8-0.3-0.9-0.7v-9.4c0.1-0.3,0.3-0.6,0.7-0.7L36.7,15.6L36.7,15.6z M34.5,18.9v1.4
		c0,0.1,0,0.2,0.2,0.2h1.7c0.1,0,0.3,0,0.4,0c0.8-0.2,1.3-0.9,1.3-1.7c-0.1-0.8-0.8-1.4-1.6-1.4h-1.7c-0.1,0-0.2,0.1-0.2,0.2
		L34.5,18.9L34.5,18.9z M68,15.6c0.3,0.1,0.6,0.3,0.7,0.6c0,0.1,0,0.3,0,0.4v2.8c1.7-1.1,3.9-0.7,5.1,0.9c1.1,1.4,1.1,3.3,0,4.8
		c-0.4,0.5-0.9,0.9-1.4,1.2c-0.6,0.3-1.2,0.4-1.9,0.3c-0.6-0.1-1.2-0.3-1.7-0.6c-0.1,0.3-0.4,0.6-0.7,0.6c-0.5,0.1-0.9-0.3-1-0.7
		l0,0v-9c-0.1-0.5,0.2-0.9,0.7-1L68,15.6L68,15.6z M72.9,22.5c0-0.2-0.1-0.4-0.1-0.6c-0.3-1.1-1.4-1.8-2.5-1.5
		c-0.7,0.2-1.2,0.7-1.4,1.3S68.7,23,69,23.6c0.4,0.8,1.3,1.2,2.1,1.1C72.2,24.5,73,23.6,72.9,22.5L72.9,22.5z M58.2,29.4
		c-0.2-0.1-0.3-0.2-0.4-0.3c-0.1-0.1-0.2-0.3-0.2-0.5c0-3,0-6,0-9c0-0.4,0.3-0.8,0.7-0.9s0.9,0.1,1,0.6l0,0c1-0.7,2.3-0.8,3.5-0.4
		c0.8,0.3,1.4,0.8,1.8,1.5c0.9,1.5,0.8,3.4-0.3,4.7c-0.6,0.7-1.4,1.2-2.3,1.3c-0.9,0.1-1.8-0.1-2.6-0.6V26c0,0.8,0,1.7,0,2.5
		c0,0.4-0.2,0.8-0.6,0.9L58.2,29.4L58.2,29.4z M63.4,22.6c0-0.4-0.1-0.9-0.4-1.2c-0.6-1-1.8-1.3-2.8-0.7c-0.1,0.1-0.2,0.1-0.3,0.2
		c-0.9,0.9-1,2.3-0.2,3.3c0.5,0.6,1.3,0.8,2,0.6C62.8,24.5,63.4,23.6,63.4,22.6L63.4,22.6z M115.4,25.7c0,0.1,0,0.1-0.1,0.2
		c-0.2,0.4-0.7,0.6-1.2,0.4c-0.3-0.1-0.4-0.4-0.5-0.6c0-2,0-4.1,0-6.1c0.1-0.5,0.6-0.8,1.1-0.6c0.3,0.1,0.5,0.3,0.6,0.5
		c0,0,0,0,0,0.1L115.4,25.7L115.4,25.7z M115.4,16.8c0,0.1-0.1,0.2-0.1,0.3c-0.2,0.4-0.6,0.5-0.9,0.5c-0.4-0.1-0.6-0.4-0.7-0.8
		c0-0.2,0-0.4,0-0.6c0.1-0.3,0.3-0.6,0.7-0.6h0.3c0.3,0.1,0.5,0.3,0.6,0.5c0,0.1,0.1,0.2,0.1,0.3V16.8L115.4,16.8z M101.1,26.2
		c-0.3,0.1-0.7,0.2-1,0.3c-1,0.1-1.9-0.2-2.6-0.9c-0.7-0.6-1.1-1.5-1-2.5c0-1.2,0-2.4,0-3.6c0-0.4,0.3-0.7,0.6-0.8
		c0.4-0.1,0.7,0.1,0.9,0.4c0.1,0.2,0.1,0.3,0.1,0.5v3.6c0,0.7,0.4,1.3,1.1,1.5c0.7,0.2,1.4-0.1,1.8-0.6c0.2-0.3,0.3-0.6,0.3-0.9
		c0-1.2,0-2.4,0-3.7c0-0.4,0.2-0.7,0.6-0.8c0.4-0.1,0.8,0.1,1,0.4c0.1,0.1,0.1,0.3,0.1,0.4v5.9c0,2-1.7,3.7-3.7,3.6
		c-0.5,0-1.1-0.1-1.6-0.4c-0.4-0.2-0.6-0.6-0.4-1c0.1-0.3,0.4-0.5,0.7-0.5c0.1,0,0.3,0,0.4,0.1C99.4,27.7,100.6,27.2,101.1,26.2
		L101.1,26.2z M46.7,19.4c0.1-0.1,0.1-0.2,0.2-0.4c0.2-0.3,0.6-0.4,0.9-0.3c0.3,0.1,0.5,0.4,0.6,0.8v0.1c0,2,0,4,0,6
		c0,0.4-0.3,0.8-0.7,0.9c-0.3,0-0.7-0.1-0.8-0.4c0-0.1-0.1-0.1-0.1-0.2c-1.6,1.2-3.9,0.8-5-0.9c-0.2-0.3-0.4-0.6-0.5-1
		c-0.5-1.3-0.3-2.7,0.5-3.9c0.8-1.1,2-1.6,3.3-1.4c0.5,0.1,1,0.3,1.5,0.6L46.7,19.4z M42.6,22.8c0,0.2,0.1,0.4,0.1,0.6
		c0.2,0.7,0.7,1.2,1.5,1.4c0.7,0.2,1.4,0,1.9-0.6c0.8-0.9,0.8-2.3,0-3.2c-0.7-0.7-1.7-0.9-2.5-0.3C42.9,21.2,42.5,22,42.6,22.8
		L42.6,22.8z M77.8,23.2c0.1,0.6,0.5,1.1,1,1.4c0.7,0.4,1.6,0.5,2.4,0.1c0.1-0.1,0.2-0.1,0.3-0.2c0.3-0.3,0.8-0.3,1.1,0
		c0.1,0.1,0.2,0.3,0.2,0.4c0,0.2,0,0.4-0.2,0.6c-1.6,1.5-4.1,1.4-5.5-0.2c-0.5-0.6-0.9-1.3-1-2c-0.3-1.9,0.7-3.7,2.5-4.4
		c1-0.4,2.2-0.3,3.2,0.3c1,0.6,1.6,1.5,1.8,2.6c0,0.1,0.1,0.3,0.1,0.4c0,0.2-0.1,0.5-0.2,0.6s-0.4,0.3-0.7,0.2L77.8,23.2L77.8,23.2z
		 M82.1,21.8c-0.4-1-1.3-1.7-2.4-1.7c-1,0-1.8,0.7-2,1.6L82.1,21.8L82.1,21.8z M53.1,18.7c0.6,0,1.3,0.2,1.8,0.5l0.5,0.3
		c0.4,0.3,0.4,0.8,0.2,1.2c-0.3,0.3-0.8,0.4-1.1,0.2c-0.3-0.2-0.7-0.4-1.1-0.5c-0.5-0.1-0.9,0-1.3,0.2L52,20.7
		c-0.1,0.1-0.1,0.2-0.1,0.3c0,0.1,0.1,0.2,0.2,0.2c0.3,0.2,0.6,0.3,1,0.4c0.7,0.1,1.3,0.3,1.9,0.6c0.6,0.3,1,0.9,1.1,1.6
		c0.1,0.6-0.1,1.3-0.6,1.7c-0.5,0.5-1.1,0.8-1.7,0.9c-1.3,0.2-2.5-0.2-3.5-1c-0.3-0.3-0.3-0.7-0.1-1.1c0.2-0.4,0.7-0.5,1.1-0.3l0,0
		c0.1,0,0.1,0.1,0.2,0.1c0.4,0.4,1,0.6,1.5,0.6c0.4,0,0.8-0.1,1.1-0.3c0.1,0,0.1-0.1,0.2-0.1c0.2-0.1,0.2-0.4,0.1-0.5
		c0-0.1-0.1-0.1-0.2-0.1c-0.4-0.2-0.9-0.4-1.4-0.5c-0.6-0.1-1.2-0.3-1.7-0.6c-0.5-0.3-0.9-0.9-0.9-1.5s0.2-1.2,0.7-1.6
		s1.1-0.7,1.7-0.8L53.1,18.7z M86.6,19.6c0.4-0.4,0.9-0.7,1.4-0.8c0.3-0.1,0.6-0.1,0.9-0.1c0.4,0,0.7,0.4,0.7,0.8s-0.3,0.8-0.7,0.8
		c-0.6,0-1.3,0.3-1.6,0.9c-0.3,0.4-0.5,0.8-0.7,1.2c-0.1,0.2-0.1,0.4-0.1,0.6v2.7c-0.1,0.5-0.5,0.8-1,0.7c-0.3,0-0.5-0.2-0.6-0.5
		c0-0.1,0-0.2,0-0.3c0-2,0-4.1,0-6.1c0-0.4,0.2-0.7,0.6-0.8c0.4-0.1,0.7,0.1,0.9,0.4C86.5,19.2,86.6,19.4,86.6,19.6L86.6,19.6z
		 M92.7,19.6c0.4-0.5,1-0.8,1.6-0.9c0.3,0,0.6,0,0.9,0c0.4,0.1,0.6,0.4,0.6,0.8s-0.4,0.8-0.8,0.8c-0.6,0-1.2,0.3-1.6,0.9
		c-0.3,0.4-0.5,0.8-0.7,1.3c0,0.1-0.1,0.2-0.1,0.4v2.7c0,0.5-0.3,0.9-0.7,0.9c-0.4,0.1-0.9-0.2-0.9-0.7l0,0c0-2.1,0-4.2,0-6.3
		c0-0.3,0.2-0.5,0.5-0.6c0.4-0.2,1,0,1.1,0.4C92.7,19.3,92.7,19.5,92.7,19.6L92.7,19.6z"/>
	<path d="M105.3,16.5v9.1c0,0.5,0.4,0.9,0.9,0.9l0,0c0.5,0,0.9-0.4,0.9-0.9v-2.5c0-0.5,0.4-0.9,0.9-0.9h2.3c0.5,0,0.9-0.4,0.9-0.9
		l0,0c0-0.5-0.4-0.9-0.9-0.9H108c-0.5,0-0.9-0.4-0.9-0.9V18c0-0.5,0.4-0.9,0.9-0.9h3.8c0.5,0,0.9-0.4,0.9-0.9l0,0
		c0-0.5-0.4-0.9-0.9-0.9h-5.7C105.7,15.6,105.3,16,105.3,16.5z"/>
</g>
<g id="Layer_2">
	<path d="M113.9,17.3L113.9,17.3c0.4,0.4,1.1,0.4,1.5,0v0c0.4-0.4,0.4-1.1,0-1.5l0,0c-0.4-0.4-1.1-0.4-1.5,0v0
		C113.5,16.2,113.5,16.9,113.9,17.3z"/>
	<path d="M114.6,13.3c0,0.3,0.2,0.6,0.6,0.7c0.4,0.1,0.9,0.3,1.3,0.7c0.4,0.4,0.6,0.9,0.7,1.3c0.1,0.3,0.4,0.6,0.7,0.6l3.4,0
		c0.4,0,0.7-0.3,0.7-0.8c-0.2-1.7-0.9-3.2-2.1-4.5c-1-1-2.2-1.6-3.6-2l0-1.6c1.6,0.4,3.3,1,4.7,2.5c1.6,1.5,2.4,3.4,2.6,5.7
		c0,0.4,0.3,0.6,0.7,0.6l0.3,0c0.4,0,0.7-0.3,0.7-0.7c-0.2-2.6-1.2-4.9-3.1-6.7c-2-1.8-4.2-2.9-6.7-3.1c-0.4,0-0.7,0.3-0.7,0.7
		l0,3.4c0,0.4,0.3,0.7,0.6,0.7c0.5,0.1,1.1,0.2,1.7,0.5c0.3,0.2,1,0.5,1.7,1.2c0.9,0.9,1.3,2,1.5,2.5l-1.7,0
		c-0.1-0.4-0.5-0.9-0.9-1.4c-0.6-0.6-1.4-1-2.2-1.1c-0.4-0.1-0.8,0.3-0.8,0.7V13.3z"/>
</g>
</svg>
