<?xml version="1.0" encoding="utf-8"?>
<!-- Generator: Adobe Illustrator 26.5.0, SVG Export Plug-In . SVG Version: 6.00 Build 0)  -->
<svg version="1.1" id="Layer_1" xmlns="http://www.w3.org/2000/svg" xmlns:xlink="http://www.w3.org/1999/xlink" x="0px" y="0px"
	 viewBox="0 0 35 35" style="enable-background:new 0 0 35 35;" xml:space="preserve">
<style type="text/css">
	.st0{fill:#75A928;}
	.st1{fill:#BC1142;}
</style>
<g id="Layer_1_00000111888112442154136220000005425343914666277294_">
	<g transform="matrix(1.188851 0 0 1.188851 -4.923022 -8.243344)">
		<path d="M14.5,8.6c-0.2,0-0.3,0.1-0.4,0.2c-0.4-0.2-0.8-0.2-1.1,0.1c-0.3-0.1-0.6,0-0.8,0.2c-0.4-0.1-0.9,0-1.2,0.4
			c-0.9-0.1-1.1,0.5-0.8,1.1c-0.3,0.3-0.3,0.8,0,1l0,0c-0.1,0.4,0,0.7,0.3,1c-0.1,0.3,0.1,0.7,0.4,0.9c0,0.4,0.3,0.8,0.7,1
			c0.1,0.4,0.4,0.8,0.9,0.8c0.1,0.4,0.5,0.6,0.9,0.7c-1.6,0.7-2.5,2.4-2.3,4.1l-0.2,0.3c-1.8,1.2-2.3,3.7-1,5.5
			c-0.1-0.1,0.1,0.1,0.2,0.2c0.1,0.6,0.3,1.2,0.5,1.7c0.2,1.6,1.2,2.9,2.7,3.5c0.8,0.6,1.7,1.1,2.6,1.5c0.8,0.9,2,1.4,3.2,1.4h0.1
			c1.2,0,2.4-0.5,3.2-1.4c0.9-0.3,1.8-0.8,2.6-1.5c1.5-0.6,2.5-1.9,2.7-3.5c0.2-0.6,0.4-1.1,0.5-1.7c1.5-1.6,1.3-4.1-0.3-5.5
			c-0.1-0.1-0.3-0.2-0.4-0.3L27.2,20c0.1-1.7-0.8-3.3-2.3-4c0.4,0,0.8-0.3,0.9-0.7c0.4,0,0.8-0.4,0.9-0.8c0.4-0.2,0.6-0.6,0.7-1
			c0.3-0.2,0.5-0.5,0.4-0.9c0.3-0.2,0.4-0.6,0.3-1c0.3-0.3,0.3-0.7,0.1-1l0,0c0.3-0.6,0-1.2-0.8-1.1c-0.3-0.3-0.8-0.5-1.2-0.4
			c-0.2-0.2-0.5-0.3-0.8-0.2c-0.3-0.3-0.7-0.3-1.1-0.1c-0.3-0.2-0.8-0.2-1.1,0c-0.3-0.1-0.7-0.1-1,0.2c-0.4-0.1-0.9,0.1-1.1,0.5
			h-0.3c-0.8,0.5-1.3,1.3-1.5,2.2c-0.2-0.9-0.8-1.7-1.5-2.3h-0.3C17.3,9,16.8,8.9,16.4,9c-0.3-0.2-0.6-0.3-1-0.2
			C14.9,8.7,14.7,8.7,14.5,8.6L14.5,8.6z"/>
		<path class="st0" d="M12.6,11c1.7,0.8,3.3,1.8,4.6,3.1c-0.3,1.6-2.4,1.7-3.2,1.7c0.1,0,0.3-0.2,0.3-0.3c-0.5-0.1-0.9-0.2-1.3-0.3
			c0.1,0,0.3-0.1,0.4-0.2c-0.4-0.1-0.8-0.3-1.2-0.5c0.2,0,0.3,0,0.5-0.1c-0.4-0.2-0.8-0.4-1.1-0.7c0.2,0,0.3,0,0.5-0.1
			c-0.3-0.2-0.6-0.5-0.9-0.7c0.2,0,0.3,0,0.5,0c-0.3-0.2-0.6-0.5-0.8-0.9c0.2,0.1,0.4,0.1,0.5,0c-0.3-0.3-0.5-0.6-0.7-0.9
			c0.2,0,0.3,0,0.5,0c-0.1-0.3-0.2-0.6-0.5-0.9c0.4,0,0.8,0,1.2,0l-0.4-0.4c0.4-0.1,0.9,0,1.3,0.1c0.2-0.1,0-0.3-0.2-0.4
			c0.4,0,0.7,0.1,1.1,0.3c0.2-0.2-0.1-0.3-0.3-0.5c0.4,0.1,0.8,0.2,1.1,0.4c0.2-0.2,0-0.3-0.1-0.5c0.4,0.1,0.7,0.3,1,0.6
			c0.1-0.1,0.2-0.3,0.1-0.5l0,0c0.3,0.2,0.6,0.4,0.8,0.7c0.1-0.1,0.2-0.3,0.1-0.5c0.3,0.3,0.6,0.6,0.9,0.9c0.1-0.1,0.1-0.2,0.1-0.4
			c0.8,0.8,2,2.8,0.3,3.6C16.2,12.5,14.5,11.6,12.6,11L12.6,11z M25.5,11c-1.7,0.8-3.3,1.8-4.6,3.1c0.4,1.6,2.5,1.7,3.2,1.6
			c-0.1-0.1-0.2-0.2-0.3-0.3c0.5-0.1,0.9-0.2,1.3-0.3c-0.1,0-0.3-0.1-0.3-0.2c0.4-0.1,0.8-0.3,1.2-0.5c-0.2,0-0.3,0-0.5-0.1
			c0.4-0.2,0.8-0.4,1.1-0.7c-0.2,0-0.3,0-0.5-0.1c0.3-0.2,0.6-0.5,0.9-0.7c-0.2,0-0.3,0-0.5,0c0.3-0.2,0.6-0.5,0.8-0.9
			c-0.2,0.1-0.4,0.1-0.5,0c0.3-0.3,0.5-0.6,0.7-0.9c-0.2,0-0.3,0-0.5,0c0.1-0.3,0.2-0.6,0.5-0.9c-0.4,0-0.8,0-1.2,0l0.3-0.3
			c-0.4-0.1-0.9,0-1.3,0.1c-0.2-0.1,0-0.3,0.2-0.4c-0.4,0-0.7,0.1-1.1,0.3c-0.2-0.2,0.1-0.3,0.2-0.5c-0.4,0.1-0.8,0.2-1.1,0.4
			c-0.2-0.2,0-0.3,0.1-0.5c-0.4,0.1-0.7,0.3-1,0.6c-0.2-0.1-0.2-0.3-0.1-0.5l0,0c-0.3,0.2-0.6,0.4-0.8,0.7c-0.1-0.1-0.2-0.3-0.1-0.5
			c-0.3,0.3-0.6,0.6-0.9,0.9c-0.1-0.1-0.1-0.2-0.1-0.4c-0.8,0.8-2,2.8-0.3,3.6C22,12.5,23.7,11.6,25.5,11L25.5,11z"/>
		<path class="st1" d="M22,27.2c-0.1,1.5-1.3,2.7-2.9,2.7c-1.5,0.1-2.9-1.1-2.9-2.7c0.1-1.5,1.3-2.7,2.9-2.7
			C20.6,24.4,21.9,25.6,22,27.2z M17.4,19.5c1.2,1,1.4,2.8,0.5,4c-0.8,1.4-2.5,1.9-3.9,1.1c-1.2-1-1.4-2.8-0.5-4
			C14.3,19.3,16,18.8,17.4,19.5z M20.7,19.4c-1.2,1-1.4,2.8-0.5,4c0.8,1.4,2.5,1.9,3.9,1.1c1.2-1,1.4-2.8,0.5-4
			C23.8,19.1,22.1,18.6,20.7,19.4z M11.4,20.8c1.3-0.3,0.4,5.4-0.6,4.9c-1.2-1.2-1.3-3.2-0.1-4.4C10.9,21.1,11.1,21,11.4,20.8z
			 M26.4,20.7c-1.3-0.3-0.4,5.4,0.6,4.9c1.2-1.2,1.3-3.2,0.1-4.4C26.9,21.1,26.7,20.9,26.4,20.7z M22,16.5c2.2-0.4,4.1,1,4,3.4
			C26,20.8,21.2,16.6,22,16.5z M15.8,16.4c-2.2-0.4-4.1,1-4,3.4C11.8,20.7,16.6,16.5,15.8,16.4z M19,15.8c-1.3,0-2.6,1-2.6,1.6
			s1.1,1.5,2.6,1.5s2.6-0.6,2.6-1.3S20.2,15.8,19,15.8L19,15.8z M19.1,30.7c1.2-0.1,2.7,0.4,2.7,0.9c0,0.5-1.4,1.8-2.8,1.7
			s-2.9-1.2-2.8-1.6C16.2,31.1,17.9,30.6,19.1,30.7L19.1,30.7z M14.8,27.3c0.9,1,1.2,2.8,0.5,3.3s-2.3,0.2-3.4-1.4
			c-0.8-1.4-0.7-2.8-0.1-3.2C12.6,25.6,13.9,26.2,14.8,27.3L14.8,27.3z M23.3,27c-0.9,1.1-1.4,3-0.7,3.6c0.6,0.5,2.3,0.4,3.6-1.3
			c0.7-1.1,0.8-2.5,0.1-3.6C25.4,25.1,24.3,25.9,23.3,27L23.3,27z"/>
	</g>
</g>
</svg>
